<?xml version="1.0" encoding="UTF-8"?>
<svg width="135.23mm" height="15.63mm" version="1.1" viewBox="0 0 122.93 14.209" xmlns="http://www.w3.org/2000/svg">
<g transform="translate(-27.296 -29.168)">
<g transform="translate(-.35484)" stroke-width=".26458">
<path d="m29.155 29.168 0.58842 1.4759 4.1768 10.698h0.0096l3.5112-9.0386 1.2251-3.1254 0.0096-0.0096h1.4759l0.01929 0.0096h0.0096l-5.4984 13.949-0.08682 0.16399h-1.3601q-0.02894 0-0.85852-2.1511l-4.7267-11.961 0.0096-0.0096z"/>
<path d="m42.091 34.126h1.3312l0.0096 0.0096v9.1447l-0.0096 0.0096h-1.3312l-0.0096-0.0096v-9.1447zm0.62701-4.9582h0.07717q0.35691 0 0.67524 0.30868 0.2508 0.29904 0.2508 0.62701v0.04823q0 0.41479-0.34727 0.72347-0.27974 0.22186-0.58842 0.22186h-0.05788q-0.42444 0-0.73312-0.3762-0.20257-0.2701-0.20257-0.54984v-0.07717q0-0.36656 0.30868-0.67524 0.29904-0.2508 0.61736-0.2508z"/>
<path d="m46.856 34.126q0.02894 0.0096 3.135 7.254 0.01929-0.0096 1.4277-3.2894l1.717-3.9646h1.4952l0.02894 0.02894-4.0032 9.135h-1.3022q-0.03858-0.0096-0.33762-0.74276l-3.6849-8.4116 0.0096-0.0096z"/>
<path d="m56.57 34.126h1.3312l0.0096 0.0096v9.1447l-0.0096 0.0096h-1.3312l-0.0096-0.0096v-9.1447zm0.62701-4.9582h0.07717q0.35691 0 0.67524 0.30868 0.2508 0.29904 0.2508 0.62701v0.04823q0 0.41479-0.34727 0.72347-0.27974 0.22186-0.58842 0.22186h-0.05788q-0.42444 0-0.73312-0.3762-0.20257-0.2701-0.20257-0.54984v-0.07717q0-0.36656 0.30868-0.67524 0.29904-0.2508 0.61736-0.2508z"/>
<path d="m64.528 34.04q1.9871 0 3.4051 1.7556 0.93569 1.3794 0.93569 2.6913v0.11576q0 0.44373-0.05788 0.44373h-7.3215q0 0.46302 0.38585 1.3022 0.57878 1.0804 1.6688 1.5048 0.53055 0.17363 0.95498 0.17363 1.3215 0 2.2862-1.1479 0.33762-0.46302 0.44373-0.74276h0.01929q0.78135 0.30868 1.2251 0.5209-0.21222 0.60772-0.94534 1.418-1.3312 1.3022-3.0193 1.3022-2.0161 0-3.4437-1.7653-0.93569-1.3408-0.93569-2.8457v-0.08682q0-1.9293 1.3794-3.3762 1.2926-1.2637 3.0193-1.2637zm-2.9035 3.6752h5.7685q-0.40514-1.2637-1.3698-1.8617-0.70418-0.45338-1.5338-0.45338-1.4084 0-2.4019 1.3119-0.30868 0.45338-0.46302 1.0032z"/>
<path d="m75.081 34.126h0.16399q2.7106 0 3.6463 2.074 0.24116 0.61736 0.24116 1.2926v5.7685l-0.02894 0.02894h-1.3022l-0.01929-0.02894v-5.7685q0-1.418-1.4566-1.8907-0.33762-0.1254-1.3215-0.1254-1.2058 0-1.8039 0.50161-0.72347 0.47267-0.72347 1.5916v5.6913l-0.02894 0.02894h-1.2926l-0.02894-0.02894v-8.971l0.02894-0.02894h1.2926l0.02894 0.02894v0.8971q1.0611-1.0611 2.6045-1.0611z"/>
<path d="m92.821 29.168h0.11576q2.4984 0 4.4952 1.9968 0.76206 0.84887 1.1383 1.5916l0.04823 0.1254q-1.1479 0.59807-1.2058 0.59807h-0.0096q-0.21222-0.53055-0.94534-1.3698-1.5627-1.5916-3.5498-1.5916h-0.07717q-2.1704 0-3.8296 1.9003-1.3119 1.7074-1.3119 3.7621v0.09646q0 2.0643 1.3119 3.7524 1.6399 1.91 3.8682 1.91 1.881 0 3.3858-1.3891 0.791-0.81994 0.99357-1.2926 0.2701-0.40514 0.54984-1.2637 0.08682-0.28939 0.16399-0.70418h-3.8682l-0.02894-0.02894v-1.2926l0.02894-0.02894h5.3055l0.02894 0.02894q0 1.0997-0.28939 2.2958-0.70418 2.3344-2.4887 3.7331-1.7556 1.2926-3.7813 1.2926-2.4887 0-4.4373-1.8714-0.80064-0.84887-1.1576-1.5434-0.93569-1.717-0.93569-3.5788v-0.11576q0-2.7588 1.8714-4.9003 0.82958-0.85852 1.3987-1.1768 1.5434-0.93569 3.2122-0.93569z"/>
<path d="m105.92 34.03q1.9003 0 3.0289 1.5627l0.0289 0.05788h0.01v-1.5048l0.0193-0.02894h1.3022l0.0289 0.02894v9.1157l-0.0289 0.02894h-1.3022l-0.0193-0.02894v-1.4855h-0.01q-1.0418 1.6013-3.1447 1.6013v-0.0096l-0.0193 0.0096q-1.8714 0-3.2797-1.5048-1.1768-1.4084-1.1768-3.1061v-0.11576q0-1.8135 1.3022-3.2412 1.3698-1.3794 3.2604-1.3794zm-3.2122 4.6399v0.04823q0 1.6109 1.2926 2.672 0.81029 0.62701 1.8038 0.62701 2.0932 0 2.8939-2.0547 0.21222-0.59807 0.21222-1.1961v-0.21222q0-0.83923-0.53055-1.7556-0.90675-1.3987-2.4212-1.3987-2.045 0-2.971 1.9293-0.27974 0.68489-0.27974 1.3408z"/>
<path d="m117.22 34.126h0.16399q2.1415 0 3.2122 1.3215 1.0611-1.3215 3.1736-1.3215h0.2701q2.5948 0 3.5691 1.8907 0.30869 0.67524 0.30869 1.3891v5.8553l-0.0193 0.02894h-1.3022l-0.0289-0.02894v-5.836q0-1.1576-1.1576-1.717-0.56913-0.23151-1.3119-0.23151h-0.32797q-1.8135 0-2.3537 1.2251-0.1447 0.33762-0.1447 0.8971v5.6624l-0.0289 0.02894h-1.3022l-0.0193-0.02894v-5.7685q0-1.418-1.4566-1.8907-0.33762-0.1254-1.3215-0.1254-1.2058 0-1.8039 0.50161-0.72347 0.47267-0.72347 1.5916v5.6913l-0.0289 0.02894h-1.2926l-0.0289-0.02894v-8.971l0.0289-0.02894h1.2926l0.0289 0.02894v0.8971q1.0611-1.0611 2.6045-1.0611z"/>
<path d="m130.85 29.168h1.2926l0.0289 0.02894v6.4534h0.01q0.1254-0.27974 0.81029-0.88746 0.97428-0.73312 2.2379-0.73312 2.3537 0 3.791 2.0257 0.78135 1.2444 0.78135 2.5466v0.21222q0 1.7556-1.3119 3.2122-0.69454 0.65595-1.2637 0.9164-0.96463 0.43408-1.8617 0.43408l-0.01-0.0096-0.0482 0.0096q-2.0836 0-3.1254-1.6013h-0.01v1.4952l-0.0289 0.01929h-1.2926l-0.0289-0.01929v-14.074zm1.3987 9.4341v0.10611q0 1.6785 1.2926 2.7588 0.75241 0.54984 1.8424 0.54984 1.5241 0 2.5466-1.4566 0.5209-0.8971 0.5209-1.7653v-0.15434q0-1.4469-1.1768-2.537-0.84887-0.70418-2.074-0.70418-1.7846 0-2.672 1.8907-0.27974 0.71382-0.27974 1.3119z"/>
<path d="m146.16 34.03q1.9003 0 3.0289 1.5627l0.0289 0.05788h0.01v-1.5048l0.0193-0.02894h1.3022l0.0289 0.02894v9.1157l-0.0289 0.02894h-1.3022l-0.0193-0.02894v-1.4855h-0.01q-1.0418 1.6013-3.1447 1.6013v-0.0096l-0.0193 0.0096q-1.8714 0-3.2797-1.5048-1.1768-1.4084-1.1768-3.1061v-0.11576q0-1.8135 1.3022-3.2412 1.3698-1.3794 3.2604-1.3794zm-3.2122 4.6399v0.04823q0 1.6109 1.2926 2.672 0.81029 0.62701 1.8039 0.62701 2.0932 0 2.8939-2.0547 0.21222-0.59807 0.21222-1.1961v-0.21222q0-0.83923-0.53055-1.7556-0.90675-1.3987-2.4212-1.3987-2.045 0-2.9711 1.9293-0.27974 0.68489-0.27974 1.3408z"/>
</g>
</g>
</svg>
